<?xml version="1.0" standalone="no"?>
<!DOCTYPE svg PUBLIC "-//W3C//DTD SVG 20010904//EN"
 "http://www.w3.org/TR/2001/REC-SVG-20010904/DTD/svg10.dtd">
<svg version="1.0" xmlns="http://www.w3.org/2000/svg"
 width="96.000000pt" height="96.000000pt" viewBox="0 0 96.000000 96.000000"
 preserveAspectRatio="xMidYMid meet">

<g transform="translate(0.000000,96.000000) scale(0.100000,-0.100000)"
fill="#000000" stroke="none">
<path d="M222 837 c-42 -45 -21 -163 23 -127 9 7 15 29 15 51 l0 39 230 0 230
0 0 -120 0 -120 -138 0 -138 0 -38 39 c-52 54 -82 64 -167 59 -63 -3 -74 -7
-96 -32 -21 -25 -24 -36 -21 -95 3 -63 4 -66 28 -66 23 0 25 4 28 55 2 30 8
60 14 67 6 8 34 13 70 13 57 0 61 -2 112 -50 l52 -50 175 -2 174 -3 0 -165 0
-165 -35 -5 c-29 -4 -35 -9 -35 -30 0 -22 5 -25 38 -28 30 -3 43 2 67 27 l30
29 0 172 0 172 -30 30 -30 30 0 127 c0 183 20 171 -291 171 -244 0 -246 0
-267 -23z"/>
<path d="M127 394 c-4 -4 -7 -59 -7 -121 0 -113 0 -115 29 -144 l30 -29 218 2
218 3 0 25 0 25 -215 5 -215 5 -5 115 c-5 106 -7 115 -25 118 -12 2 -24 0 -28
-4z"/>
</g>
</svg>
