<?xml version="1.0" standalone="no"?>
<!DOCTYPE svg PUBLIC "-//W3C//DTD SVG 20010904//EN"
 "http://www.w3.org/TR/2001/REC-SVG-20010904/DTD/svg10.dtd">
<svg version="1.0" xmlns="http://www.w3.org/2000/svg"
 width="50.000000pt" height="50.000000pt" viewBox="0 0 50.000000 50.000000"
 preserveAspectRatio="xMidYMid meet">

<g transform="translate(0.000000,50.000000) scale(0.100000,-0.100000)"
fill="#000000" stroke="none">
<path d="M0 250 l0 -200 250 0 250 0 0 200 0 200 -250 0 -250 0 0 -200z m480
50 l0 -130 -53 0 c-41 0 -61 6 -87 25 -19 14 -47 25 -65 25 -20 0 -39 8 -51
21 -13 15 -26 19 -46 15 -16 -3 -28 -2 -28 2 0 4 -9 18 -20 32 l-19 25 -45
-45 -46 -44 0 102 0 102 230 0 230 0 0 -130z m-307 -67 c17 5 29 1 42 -13 11
-12 31 -20 49 -20 17 0 48 -11 68 -25 28 -19 50 -25 92 -25 l56 0 0 -40 0 -40
-230 0 -230 0 0 62 c0 60 2 64 42 106 l43 43 21 -27 c17 -21 27 -25 47 -21z"/>
<path d="M342 358 c-32 -32 4 -87 48 -73 24 8 34 39 20 65 -12 22 -49 27 -68
8z m56 -31 c4 -20 -25 -34 -40 -19 -15 15 -1 44 19 40 10 -2 19 -11 21 -21z"/>
</g>
</svg>
